<?xml version="1.0" encoding="UTF-8"?>
<svg xmlns="http://www.w3.org/2000/svg" xmlns:xlink="http://www.w3.org/1999/xlink" width="25px" height="25px" viewBox="0 0 25 25" version="1.1">
<defs>
<linearGradient id="linear0" gradientUnits="userSpaceOnUse" x1="0" y1="0" x2="1" y2="0" gradientTransform="matrix(11.773438,0,0,7.851563,2.6875,8.816406)">
<stop offset="0" style="stop-color:rgb(100%,100%,100%);stop-opacity:0.4;"/>
<stop offset="1" style="stop-color:rgb(100%,100%,100%);stop-opacity:0.101961;"/>
</linearGradient>
</defs>
<g id="surface1">
<path style=" stroke:none;fill-rule:evenodd;fill:rgb(0%,0%,0%);fill-opacity:0.25098;" d="M 17.207031 3.597656 C 17.167969 3.601562 17.132812 3.609375 17.105469 3.621094 C 16.210938 4.035156 17.585938 8.578125 17.585938 8.578125 C 17.585938 8.578125 3.605469 8.304688 2.988281 8.648438 C 2.367188 8.992188 2.363281 16.96875 2.984375 17.316406 C 3.605469 17.660156 17.585938 17.382812 17.585938 17.382812 C 17.585938 17.382812 16.207031 21.929688 17.101562 22.34375 C 17.980469 22.746094 24.585938 17.480469 24.679688 13.125 C 24.683594 13.03125 24.679688 12.933594 24.679688 12.839844 C 24.59375 8.621094 18.398438 3.550781 17.207031 3.597656 Z M 17.207031 3.597656 "/>
<path style="fill-rule:evenodd;fill:rgb(0%,0%,100%);fill-opacity:1;stroke-width:10;stroke-linecap:butt;stroke-linejoin:round;stroke:rgb(0%,0%,0%);stroke-opacity:1;stroke-miterlimit:4;" d="M 332.578125 67.03125 C 331.796875 67.109375 331.171875 67.265625 330.625 67.5 C 312.65625 75.78125 340.234375 166.640625 340.234375 166.640625 C 340.234375 166.640625 60.625 161.171875 48.203125 168.046875 C 35.859375 174.921875 35.78125 334.53125 48.125 341.40625 C 60.546875 348.28125 340.15625 342.734375 340.15625 342.734375 C 340.15625 342.734375 312.65625 433.671875 330.546875 441.953125 C 348.046875 450 480.234375 344.6875 482.03125 257.578125 L 482.109375 257.578125 C 482.1875 255.703125 482.109375 253.75 482.03125 251.875 C 480.3125 167.5 356.40625 66.09375 332.578125 67.03125 Z M 332.578125 67.03125 " transform="matrix(0.05,0,0,0.05,0,0)"/>
<path style=" stroke:none;fill-rule:evenodd;fill:url(#linear0);" d="M 2.6875 8.816406 C 2.273438 9.710938 1.929688 14.738281 2.890625 16.667969 C 3.238281 16.734375 5.992188 12.878906 14.460938 13.292969 C 6.472656 12.257812 2.6875 8.816406 2.6875 8.816406 Z M 2.6875 8.816406 "/>
</g>
</svg>
