<?xml version="1.0" encoding="UTF-8"?>
<svg xmlns="http://www.w3.org/2000/svg" xmlns:xlink="http://www.w3.org/1999/xlink" width="25px" height="25px" viewBox="0 0 25 25" version="1.1">
<defs>
<linearGradient id="linear0" gradientUnits="userSpaceOnUse" x1="0" y1="0" x2="1" y2="0" gradientTransform="matrix(10.742188,0,0,18.113281,1.585938,3.097656)">
<stop offset="0" style="stop-color:rgb(100%,100%,100%);stop-opacity:0.4;"/>
<stop offset="1" style="stop-color:rgb(100%,100%,100%);stop-opacity:0.101961;"/>
</linearGradient>
</defs>
<g id="surface1">
<path style=" stroke:none;fill-rule:evenodd;fill:rgb(0%,0%,0%);fill-opacity:0.25098;" d="M 9.585938 22.089844 C 9.625 22.085938 9.65625 22.082031 9.683594 22.066406 C 10.578125 21.652344 9.203125 17.109375 9.203125 17.109375 C 9.203125 17.109375 23.183594 17.386719 23.804688 17.039062 C 24.421875 16.695312 24.425781 8.71875 23.804688 8.375 C 23.1875 8.03125 9.203125 8.304688 9.203125 8.304688 C 9.203125 8.304688 10.582031 3.757812 9.6875 3.34375 C 8.8125 2.941406 2.203125 8.207031 2.113281 12.5625 L 2.109375 12.5625 C 2.105469 12.660156 2.109375 12.753906 2.109375 12.851562 C 2.199219 17.066406 8.394531 22.136719 9.585938 22.089844 Z M 9.585938 22.089844 "/>
<path style="fill-rule:evenodd;fill:rgb(0%,0%,100%);fill-opacity:1;stroke-width:10;stroke-linecap:butt;stroke-linejoin:round;stroke:rgb(0%,0%,0%);stroke-opacity:1;stroke-miterlimit:4;" d="M 176.015625 431.328125 C 176.796875 431.328125 177.5 431.171875 178.046875 430.9375 C 195.9375 422.65625 168.4375 331.796875 168.4375 331.796875 C 168.4375 331.796875 448.046875 337.265625 460.390625 330.390625 C 472.8125 323.515625 472.890625 163.90625 460.46875 157.03125 C 448.046875 150.15625 168.4375 155.703125 168.4375 155.703125 C 168.4375 155.703125 196.015625 64.765625 178.125 56.484375 C 160.546875 48.359375 28.4375 153.75 26.5625 240.859375 C 26.40625 242.734375 26.5625 244.6875 26.5625 246.5625 C 28.28125 330.9375 152.1875 432.265625 176.015625 431.328125 Z M 176.015625 431.328125 " transform="matrix(0.05,0,0,0.05,0,0)"/>
<path style=" stroke:none;fill-rule:evenodd;fill:url(#linear0);" d="M 8.816406 3.097656 C 7.988281 2.824219 1.238281 8.195312 1.585938 12.535156 C 1.929688 16.875 8.058594 21.417969 8.539062 21.210938 C 9.433594 20.867188 8.402344 17.355469 8.058594 16.460938 C 8.195312 16.046875 7.78125 12.949219 12.328125 12.808594 C 7.230469 11.15625 8.472656 8.195312 7.988281 7.851562 C 8.609375 5.855469 9.023438 3.511719 8.816406 3.097656 Z M 8.816406 3.097656 "/>
</g>
</svg>
