<?xml version="1.0" encoding="UTF-8"?>
<svg xmlns="http://www.w3.org/2000/svg" xmlns:xlink="http://www.w3.org/1999/xlink" width="25px" height="px" viewBox="0 0 25 19" version="1.1">
<g id="surface1">
<path style="fill-rule:nonzero;fill:rgb(54.901961%,84.313725%,62.352941%);fill-opacity:1;stroke-width:1;stroke-linecap:butt;stroke-linejoin:miter;stroke:rgb(0%,0%,0%);stroke-opacity:1;stroke-miterlimit:4;" d="M 245.5 231.784539 C 246.75 231.784539 249 231.784539 253.75 231.784539 C 263.125 231.784539 272.625 232.524671 285.5 231.784539 C 298.5 230.921053 312.5 229.440789 323.125 228.700658 C 332.5 228.083882 341.875 225 349 224.136513 C 356 223.396382 360.75 223.273026 367.875 222.65625 C 376.125 221.916118 384 219.695724 391.375 218.215461 C 399.5 216.488487 411.25 215.871711 421.875 215.131579 C 433.625 214.268092 446.625 215.131579 457.25 215.131579 C 467.75 215.131579 477.25 216.611842 487.75 218.215461 C 497.125 219.572368 507.75 220.435855 517.125 221.175987 C 526.5 221.916118 536 222.65625 544.25 222.65625 C 551.25 222.65625 556 222.65625 560.625 222.65625 C 565.375 222.65625 571.125 221.916118 578.25 221.175987 C 584.125 220.559211 590 217.475329 598.25 216.611842 C 605.375 215.995066 614.75 215.131579 623 215.131579 C 630 215.131579 638.25 213.651316 644.125 213.651316 C 652.375 213.651316 660.625 213.651316 666.5 213.651316 C 671.25 213.651316 673.5 213.651316 675.875 213.651316 C 679.5 213.651316 684.125 213.157895 688.875 213.651316 C 696 214.391447 705.375 214.514803 717.125 216.611842 C 730.125 218.955592 741.625 223.273026 752.375 225.740132 C 760.5 227.590461 768.75 229.440789 773.5 230.180921 C 775.875 230.550987 777 230.180921 777 231.784539 C 777 233.264803 777 234.745066 777 239.309211 C 777 245.230263 777 252.754934 777 260.402961 C 777 266.324013 777 273.848684 777 279.893092 C 777 285.9375 777 293.462171 777 298.026316 C 777 302.467105 777 309.991776 777 314.555921 C 777 320.600329 777 325.164474 777 328.125 C 777 331.085526 777 337.129934 777 341.694079 C 777 346.134868 777 349.21875 777 350.699013 C 777 352.179276 776.75 352.672697 775.875 353.659539 C 774.25 355.879934 774.75 356.743421 773.5 358.223684 C 772.375 359.703947 771.125 359.703947 770 359.703947 C 767.625 359.703947 762.875 359.703947 755.875 359.703947 C 748.875 359.703947 741.75 359.703947 734.75 359.703947 C 726.5 359.703947 717.125 362.664474 705.25 364.268092 C 694.75 365.748355 683 365.748355 671.25 367.228618 C 659.5 368.832237 647.625 368.092105 637.125 368.832237 C 626.5 369.572368 619.5 370.435855 611.25 371.792763 C 601.875 373.396382 592.375 374.753289 583 374.753289 C 574.75 374.753289 564.25 374.013158 553.625 373.273026 C 543 372.532895 532.5 373.273026 523 373.273026 C 511.25 373.273026 499.5 372.409539 490.125 371.792763 C 478.25 371.052632 467.75 368.832237 457.25 368.832237 C 446.625 368.832237 439.5 368.832237 432.5 368.832237 C 424.25 368.832237 414.875 366.488487 403.125 365.748355 C 391.375 365.008224 380.75 365.008224 371.375 364.268092 C 361.875 363.527961 354.75 363.527961 345.5 361.307566 C 336 358.963816 326.875 356.003289 319.625 353.659539 C 312.625 351.5625 306.625 350.699013 300.75 350.699013 C 297.25 350.699013 293.75 349.21875 291.375 349.21875 C 287.875 349.21875 285.5 349.21875 283.125 349.21875 C 282 349.21875 280.75 349.21875 279.625 349.21875 C 274.875 349.21875 268 349.958882 262 350.699013 C 257.25 351.315789 252.625 350.699013 251.375 350.699013 C 249 350.699013 247.875 350.699013 244.375 350.699013 C 243.125 350.699013 242 350.699013 242 352.179276 C 242 355.263158 243.875 360.9375 245.5 368.832237 C 247.5 377.590461 248.5 388.322368 249 398.930921 C 249.5 406.455592 250.25 416.940789 250.25 429.029605 C 250.25 441.118421 250.75 451.480263 251.375 460.608553 C 251.875 468.133224 251.375 475.657895 251.375 481.702303 C 251.375 487.746711 251.375 493.791118 251.375 499.835526 C 251.375 505.879934 250.875 510.444079 251.375 514.884868 C 252 519.572368 253.75 520.929276 253.75 523.889803 C 253.75 525.370066 253.75 526.973684 253.75 528.453947 C 253.75 529.934211 253.75 531.414474 253.75 532.894737 C 253.75 534.498355 254.625 536.348684 253.75 537.458882 C 252.875 538.569079 251.25 538.075658 250.25 537.458882 C 247.125 535.855263 244.875 530.674342 242 528.453947 C 238.875 525.863487 234.875 522.409539 231.375 519.449013 C 227.875 516.365132 223.125 511.924342 218.5 507.360197 C 212.5 501.439145 206.25 494.284539 199.625 487.746711 C 194.25 482.319079 188.5 476.398026 183.25 471.217105 C 175.625 463.815789 165 457.03125 156.125 448.643092 C 146.125 439.021382 135.875 426.439145 126.75 416.940789 C 118.25 408.305921 113.125 401.274671 107.875 395.847039 C 101.375 389.0625 94 380.550987 84.375 373.273026 C 76.25 367.105263 68.875 360.074013 62.125 353.659539 C 56 347.985197 50.5 341.324013 44.375 335.649671 C 37.625 329.235197 30.5 326.891447 26.75 322.080592 C 24.875 319.736842 23.5 317.269737 22.125 316.036184 C 20 314.0625 20.25 314.309211 20.875 313.075658 C 22.25 310.238487 25.25 310.855263 26.75 309.991776 C 30 308.264803 32.25 307.771382 35 305.550987 C 38.25 302.960526 41.125 301.480263 46.75 296.546053 C 53 290.995066 61.75 283.963816 70.25 275.452303 C 78.25 267.434211 85.875 257.689145 93.875 248.314145 C 101.25 239.555921 108.25 233.634868 116.125 222.65625 C 123.5 212.541118 131.75 202.055921 138.5 194.037829 C 145.875 185.402961 153.125 176.768092 159.625 168.503289 C 167.375 158.758224 173.375 151.233553 178.5 142.845395 C 182.75 135.9375 187 129.769737 192.625 123.231908 C 197.5 117.557566 200.625 112.376645 204.375 108.182566 C 208.75 103.248355 212.25 98.930921 215 94.613487 C 218.125 89.679276 220 86.225329 223.125 82.648026 C 225.125 80.427632 228.125 76.973684 231.375 73.643092 C 234 70.929276 237.25 67.598684 239.625 64.514803 C 242 61.554276 242.375 59.580592 243.125 58.470395 C 244 57.483553 243.75 59.703947 243.125 63.034539 C 242.125 68.955592 241.375 75 240.875 81.167763 C 240.25 87.088816 240.875 91.652961 240.875 94.613487 C 240.875 99.177632 240.875 103.741776 240.875 108.182566 C 240.875 115.707237 240.875 121.751645 240.875 129.276316 C 240.875 135.320724 239.75 141.488487 240.875 147.409539 C 241.375 150.616776 242.625 156.291118 243.125 162.458882 C 243.625 166.899671 243.125 169.983553 243.125 174.547697 C 243.125 180.46875 243.125 185.032895 243.125 191.077303 C 243.125 195.518092 243.125 200.082237 243.125 204.646382 C 243.125 209.087171 244.375 210.690789 244.375 213.651316 C 244.375 215.131579 244.375 216.611842 244.375 221.175987 C 244.375 224.136513 245.5 227.220395 245.5 228.700658 L 245.5 230.180921 L 246.75 230.180921 L 246.75 231.784539 " transform="matrix(0.03125,0,0,0.0316667,0,0)"/>
</g>
</svg>
