<?xml version="1.0" encoding="UTF-8"?>
<svg xmlns="http://www.w3.org/2000/svg" xmlns:xlink="http://www.w3.org/1999/xlink" width="25px" height="px" viewBox="0 0 25 19" version="1.1">
<g id="surface1">
<path style="fill-rule:nonzero;fill:rgb(54.901961%,84.313725%,62.352941%);fill-opacity:1;stroke-width:1;stroke-linecap:butt;stroke-linejoin:miter;stroke:rgb(0%,0%,0%);stroke-opacity:1;stroke-miterlimit:4;" d="M 245.49 231.715842 C 246.74 231.715842 248.99 231.715842 253.74 231.715842 C 263.115 231.715842 272.615 232.455974 285.49 231.715842 C 298.49 230.975711 312.49 229.495447 323.115 228.755316 C 332.49 228.015184 341.865 224.931303 348.99 224.191171 C 355.99 223.451039 360.74 223.327684 367.865 222.710908 C 376.115 221.970776 383.99 219.750382 391.365 218.146763 C 399.49 216.543145 411.24 215.926368 421.865 215.186237 C 433.615 214.32275 446.615 215.186237 457.24 215.186237 C 467.74 215.186237 477.24 216.543145 487.74 218.146763 C 497.24 219.627026 507.74 220.367158 517.115 221.230645 C 526.49 221.970776 535.99 222.710908 544.24 222.710908 C 551.24 222.710908 555.99 222.710908 560.615 222.710908 C 565.365 222.710908 571.24 221.970776 578.365 221.230645 C 584.115 220.613868 589.99 217.406632 598.24 216.6665 C 605.365 216.049724 614.74 215.186237 622.99 215.186237 C 629.99 215.186237 638.24 213.705974 644.115 213.705974 C 652.365 213.705974 660.615 213.705974 666.49 213.705974 C 671.24 213.705974 673.615 213.705974 675.865 213.705974 C 679.49 213.705974 684.115 213.212553 688.865 213.705974 C 695.99 214.446105 705.365 214.569461 717.115 216.6665 C 730.115 219.01025 741.74 223.204329 752.365 225.671434 C 760.49 227.645118 768.74 229.495447 773.49 230.235579 C 775.865 230.605645 776.99 230.235579 776.99 231.715842 C 776.99 233.196105 776.99 234.676368 776.99 239.240513 C 776.99 245.284921 776.99 252.809592 776.99 260.334263 C 776.99 266.378671 776.99 273.903342 776.99 279.94775 C 776.99 285.992158 776.99 293.516829 776.99 297.957618 C 776.99 302.521763 776.99 310.046434 776.99 314.610579 C 776.99 320.531632 776.99 325.095776 776.99 328.056303 C 776.99 331.140184 776.99 337.184592 776.99 341.625382 C 776.99 346.189526 776.99 349.150053 776.99 350.753671 C 776.99 352.233934 776.74 352.604 775.865 353.714197 C 774.24 355.811237 774.74 356.674724 773.49 358.278342 C 772.365 359.758605 771.115 359.758605 769.99 359.758605 C 767.615 359.758605 762.99 359.758605 755.865 359.758605 C 748.865 359.758605 741.74 359.758605 734.74 359.758605 C 726.49 359.758605 717.115 362.719132 705.365 364.32275 C 694.74 365.679658 682.99 365.803013 671.24 367.283276 C 659.49 368.763539 647.615 368.023408 637.115 368.763539 C 626.49 369.503671 619.49 370.367158 611.24 371.847421 C 601.865 373.451039 592.365 374.807947 582.99 374.807947 C 574.74 374.807947 564.24 374.067816 553.615 373.327684 C 542.99 372.587553 532.49 373.327684 522.99 373.327684 C 511.24 373.327684 499.49 372.340842 490.115 371.847421 C 478.365 370.983934 467.74 368.763539 457.24 368.763539 C 446.615 368.763539 439.49 368.763539 432.49 368.763539 C 424.24 368.763539 414.865 366.543145 403.115 365.803013 C 391.365 365.062882 380.74 365.062882 371.365 364.32275 C 361.865 363.459263 354.74 363.459263 345.49 361.238868 C 335.99 359.018474 326.865 356.057947 319.615 353.714197 C 312.615 351.493803 306.615 350.753671 300.74 350.753671 C 297.24 350.753671 293.74 349.150053 291.365 349.150053 C 287.865 349.150053 285.49 349.150053 283.115 349.150053 C 281.99 349.150053 280.74 349.150053 279.615 349.150053 C 274.865 349.150053 267.99 349.890184 261.99 350.753671 C 257.24 351.247092 252.615 350.753671 251.365 350.753671 C 248.99 350.753671 247.865 350.753671 244.365 350.753671 C 243.115 350.753671 241.99 350.753671 241.99 352.233934 C 241.99 355.194461 243.865 360.992158 245.49 368.763539 C 247.49 377.645118 248.49 388.253671 248.99 398.862224 C 249.49 406.386895 250.24 416.995447 250.24 429.084263 C 250.24 441.049724 250.865 451.534921 251.365 460.663211 C 251.865 468.187882 251.365 475.712553 251.365 481.756961 C 251.365 487.801368 251.365 493.845776 251.365 499.766829 C 251.365 505.811237 250.865 510.375382 251.365 514.816171 C 251.99 519.627026 253.74 520.860579 253.74 523.944461 C 253.74 525.424724 253.74 526.904987 253.74 528.38525 C 253.74 529.988868 253.74 531.469132 253.74 532.949395 C 253.74 534.429658 254.615 536.403342 253.74 537.513539 C 252.865 538.500382 251.365 538.006961 250.24 537.513539 C 247.115 535.786566 244.865 530.605645 241.99 528.38525 C 238.865 525.918145 234.99 522.340842 231.365 519.380316 C 227.865 516.419789 223.115 511.979 218.49 507.2915 C 212.49 501.493803 206.24 494.339197 199.615 487.801368 C 194.24 482.373737 188.49 476.329329 183.24 471.148408 C 175.615 463.870447 165.115 457.085908 156.115 448.574395 C 146.115 439.076039 135.865 426.370447 126.74 416.995447 C 118.24 408.237224 113.115 401.329329 107.99 395.901697 C 101.365 388.993803 93.99 380.605645 84.365 373.327684 C 76.24 367.036566 68.865 360.128671 62.115 353.714197 C 55.99 348.039855 50.49 341.378671 44.49 335.704329 C 37.615 329.289855 30.49 326.82275 26.74 322.13525 C 24.99 319.668145 23.49 317.324395 22.115 316.090842 C 19.99 314.117158 20.24 314.363868 20.865 313.006961 C 22.24 310.169789 25.24 310.909921 26.74 310.046434 C 30.115 308.319461 32.24 307.702684 34.99 305.482289 C 38.24 303.015184 41.115 301.534921 46.74 296.477355 C 52.99 290.926368 61.74 284.018474 70.365 275.383605 C 78.24 267.365513 85.865 257.620447 93.865 248.245447 C 101.24 239.487224 108.24 233.689526 116.115 222.710908 C 123.49 212.472421 131.74 201.987224 138.49 194.092487 C 145.865 185.457618 153.115 176.699395 159.615 168.434592 C 167.365 158.689526 173.365 151.288211 178.49 142.900053 C 182.74 135.992158 186.99 129.701039 192.615 123.286566 C 197.615 117.612224 200.615 112.431303 204.365 108.237224 C 208.865 103.303013 212.24 98.862224 214.99 94.668145 C 218.115 89.733934 219.99 86.156632 223.115 82.579329 C 225.115 80.358934 228.115 77.028342 231.365 73.574395 C 233.99 70.860579 237.24 67.529987 239.615 64.569461 C 241.99 61.485579 242.365 59.63525 243.115 58.525053 C 243.99 57.414855 243.74 59.758605 243.115 63.089197 C 242.115 68.886895 241.365 74.931303 240.865 81.099066 C 240.24 87.143474 240.865 91.707618 240.865 94.668145 C 240.865 99.232289 240.865 103.673079 240.865 108.237224 C 240.865 115.761895 240.865 121.806303 240.865 129.330974 C 240.865 135.375382 239.74 141.543145 240.865 147.340842 C 241.365 150.671434 242.615 156.222421 243.115 162.390184 C 243.615 166.954329 243.115 169.914855 243.115 174.479 C 243.115 180.523408 243.115 185.087553 243.115 191.008605 C 243.115 195.57275 243.115 200.136895 243.115 204.577684 C 243.115 209.141829 244.365 210.622092 244.365 213.705974 C 244.365 215.186237 244.365 216.6665 244.365 221.230645 C 244.365 224.191171 245.49 227.151697 245.49 228.755316 L 245.49 230.235579 L 246.74 230.235579 L 246.74 231.715842 " transform="matrix(-0.03125,0.000000000000000004,-0.000000000000000004,-0.0316667,24.921563,18.884543)"/>
</g>
</svg>
