<?xml version="1.0" encoding="UTF-8"?>
<svg xmlns="http://www.w3.org/2000/svg" xmlns:xlink="http://www.w3.org/1999/xlink" width="25px" height="px" viewBox="0 0 25 19" version="1.1">
<g id="surface1">
<path style="fill-rule:nonzero;fill:rgb(44.705882%,61.176471%,38.431373%);fill-opacity:1;stroke-width:1;stroke-linecap:butt;stroke-linejoin:miter;stroke:rgb(0%,0%,0%);stroke-opacity:1;stroke-miterlimit:4;" d="M 211.875 237.828947 C 212.625 237.828947 216.25 237.828947 223 237.828947 C 231.125 237.828947 242.25 238.939145 253.375 238.569079 C 263.75 238.199013 275.625 237.458882 288.125 236.348684 C 300.75 235.238487 314.875 235.115132 326.625 234.868421 C 340 234.498355 351.875 234.128289 361.5 234.128289 C 369.625 234.128289 377 234.128289 383.75 234.128289 C 390.375 234.128289 399.25 234.128289 408.125 234.128289 C 417.75 234.128289 426.625 234.128289 433.375 234.128289 C 440.75 234.128289 448.875 234.128289 456.25 233.388158 C 463 232.648026 471.125 232.648026 477.75 232.648026 C 485.25 232.648026 494.75 232.277961 504.5 231.907895 C 514.125 231.537829 520.75 231.167763 526.625 231.167763 C 530.375 231.167763 532.5 230.057566 534.875 229.6875 C 535.5 229.564145 536.375 229.934211 538.5 229.6875 C 540.875 229.317434 543.125 228.947368 546.625 228.207237 C 549.875 227.34375 552.75 226.726974 554.875 225.986842 C 555.75 225.493421 560 222.286184 555.5 227.467105 C 551.125 232.648026 554.5 234.004934 554.125 237.828947 C 553.625 242.886513 553.125 248.190789 552.625 254.851974 C 552.25 260.032895 551.625 265.953947 551.125 273.355263 C 550.75 279.276316 548.125 285.074013 547.375 292.598684 C 546.625 300 546 306.661184 545.25 313.322368 C 544.5 319.243421 543.75 325.904605 543 334.046053 C 542.25 341.447368 541.875 347.368421 541.5 354.769737 C 541.125 361.554276 540.375 369.695724 540.75 376.356908 C 541.125 383.018092 541.5 389.679276 542.25 395.600329 C 543 402.261513 543.75 408.182566 543.75 414.103618 C 543.75 421.504934 544.5 428.90625 545.25 436.307566 C 545.875 443.708882 546.625 450.370066 547.375 454.810855 C 548.125 459.251645 547.25 463.075658 548.125 468.873355 C 548.875 473.560855 550 479.235197 550.375 484.416118 C 550.75 490.337171 550.375 493.297697 550.375 496.998355 C 550.375 501.439145 550.375 505.879934 550.375 511.060855 C 550.375 516.981908 550.375 522.286184 550.375 526.726974 C 550.375 530.427632 550.375 533.388158 550.375 536.348684 C 550.375 538.569079 550.875 540.172697 550.375 540.789474 C 549.875 541.282895 547.75 539.432566 543.75 537.828947 C 538.125 535.485197 530.5 534.498355 521.5 532.648026 C 512.625 530.797697 503 529.317434 491.875 528.207237 C 480.75 527.097039 468.25 526.356908 456.25 525.246711 C 446 524.136513 435.5 524.136513 425.875 523.766447 C 417.75 523.396382 409.625 523.273026 401.5 522.286184 C 392.5 521.052632 384.5 520.3125 376.25 520.065789 C 366.625 519.572368 358.625 518.585526 348.875 517.722039 C 338.5 516.981908 328.875 518.092105 320 517.722039 C 311.125 517.351974 304.5 516.981908 297 516.981908 C 290.375 516.981908 283.75 516.981908 275.5 516.981908 C 267.375 516.981908 260.75 517.351974 254.125 517.722039 C 249.625 517.96875 245.25 518.832237 242.25 519.202303 C 237.875 519.819079 233.375 519.942434 228.875 520.805921 C 225.125 521.422697 221.25 522.409539 218.5 523.766447 C 215.125 525.246711 213.375 526.973684 212.625 528.947368 C 212.25 529.564145 212.75 528.207237 212.625 524.506579 C 212.25 514.761513 210.75 504.399671 211.125 493.297697 C 211.5 482.195724 212.625 474.054276 212.625 465.172697 C 212.625 454.810855 211.875 441.488487 211.125 424.465461 C 210.5 410.402961 210.25 397.697368 211.125 386.71875 C 211.875 376.973684 213.375 369.572368 213.375 360.690789 C 213.375 351.069079 213.375 341.447368 213.375 332.565789 C 213.375 323.684211 213 316.40625 211.875 309.621711 C 210.75 302.960526 210 297.039474 209.625 292.598684 C 209.25 287.417763 209.625 282.236842 209.625 277.796053 C 209.625 273.355263 209.625 269.654605 209.625 266.694079 C 209.625 263.733553 209.625 259.292763 209.625 254.851974 C 209.625 249.671053 209.625 245.970395 209.625 243.75 C 209.625 243.009868 209.625 242.269737 209.625 241.529605 C 209.625 240.789474 209.625 240.049342 209.625 239.309211 L 209.625 235.608553 " transform="matrix(0.03125,0,0,0.0316667,0,0)"/>
<path style="fill-rule:nonzero;fill:rgb(100%,100%,100%);fill-opacity:1;stroke-width:1;stroke-linecap:butt;stroke-linejoin:miter;stroke:rgb(0%,0%,0%);stroke-opacity:1;stroke-miterlimit:4;" d="M 291.875 294.819079 C 292.625 294.819079 296.25 294.819079 302.25 294.819079 C 308.875 294.819079 317.75 295.682566 328.125 297.039474 C 341.5 298.766447 356.25 299.136513 371.875 300.740132 C 385.25 302.097039 397.125 302.590461 408.125 304.440789 C 419.375 306.291118 431.875 309.251645 443 310.361842 C 452.625 311.348684 459.25 311.472039 463.75 311.842105 C 465.875 312.088816 467 311.595395 467.375 312.582237 C 467.75 313.322368 468.5 315.666118 469.625 319.983553 C 470.75 324.547697 472.25 329.605263 472.625 334.046053 C 473 338.486842 472.625 342.927632 472.625 348.848684 C 472.625 355.509868 471.5 363.651316 470.375 371.916118 C 469.25 379.934211 470 386.71875 469.625 391.899671 C 469.25 397.080592 467.375 403.741776 466.625 411.143092 C 465.875 419.284539 465.875 427.425987 465.875 434.827303 C 465.875 439.268092 466.375 442.96875 465.875 445.929276 C 465.5 448.273026 465.25 451.110197 465.25 454.070724 C 465.25 457.771382 465.75 460.978618 465.25 461.472039 C 463.625 463.075658 457.75 461.472039 450.375 461.472039 C 440.75 461.472039 428.875 461.595395 416.25 460.731908 C 405.875 460.115132 396.25 459.621711 388.875 459.251645 C 382.25 458.881579 377 457.771382 371.125 457.771382 C 364.5 457.771382 357 457.771382 348.125 457.771382 C 338.5 457.771382 330.375 457.401316 322.25 457.03125 C 317 456.784539 313.25 457.524671 309.625 457.03125 C 306.625 456.661184 303 455.921053 300.75 455.550987 C 298.375 455.180921 298 454.810855 297.75 454.070724 C 297.375 452.467105 295.75 450.493421 294.875 445.189145 C 293.375 437.171053 292.375 426.685855 291.125 414.84375 C 290.125 405.222039 289.875 397.080592 290.375 388.199013 C 290.75 380.674342 291.875 371.916118 291.875 363.651316 C 291.875 355.509868 291.875 348.848684 292.625 343.667763 C 293.5 337.006579 293.375 331.085526 293.375 324.424342 C 293.375 319.243421 293.375 315.542763 293.375 311.101974 C 293.375 307.401316 293.75 303.824013 294.125 300.740132 C 294.5 297.039474 294.125 294.078947 294.125 291.118421 C 294.125 288.898026 293.875 276.069079 294.125 287.417763 C 294.375 298.766447 294.25 287.417763 294.125 288.157895 C 294 288.898026 293.375 291.858553 293.375 294.078947 C 293.375 294.819079 293.375 296.299342 293.375 297.039474 L 293.375 298.519737 " transform="matrix(0.03125,0,0,0.0316667,0,0)"/>
<path style="fill:none;stroke-width:1;stroke-linecap:butt;stroke-linejoin:miter;stroke:rgb(0%,0%,0%);stroke-opacity:1;stroke-miterlimit:4;" d="M 384.125 301.233553 C 384.125 302.960526 384.125 304.6875 384.125 307.03125 C 384.125 309.375 385 312.335526 385.25 314.679276 C 385.625 317.639803 385.625 319.983553 385.875 322.327303 C 386.125 324.794408 386.75 327.631579 387 329.975329 C 387.5 333.552632 387 337.006579 387 339.967105 C 387 342.927632 387.375 345.888158 387 349.465461 C 386.75 352.425987 385.875 357.113487 385.875 361.184211 C 385.875 365.871711 385.875 370.559211 385.875 374.136513 C 385.875 378.207237 385.625 381.167763 385.25 384.128289 C 385 387.088816 385 389.309211 384.75 391.776316 C 384.375 394.736842 384.125 397.697368 384.125 401.151316 C 384.125 404.728618 383.875 407.689145 383 411.143092 C 382.125 414.226974 381.25 416.447368 380.625 419.407895 C 380 421.751645 379.375 425.328947 378.875 427.672697 C 378.25 430.016447 377.625 432.360197 377 434.703947 C 376.5 437.047697 376.5 439.391447 376.5 441.735197 C 376.5 443.585526 376.5 444.078947 376.5 445.3125 C 376.5 446.422697 376.5 447.039474 376.5 448.273026 C 376.5 448.766447 376.5 449.383224 376.5 450 C 376.5 450.616776 376.75 450.986842 377 451.726974 C 377.25 452.34375 377.375 452.713816 377.625 453.577303 C 377.875 454.070724 377.875 454.564145 378.25 455.304276 C 378.5 455.797697 378.875 456.414474 379.375 456.414474 L 379.375 458.881579 " transform="matrix(0.03125,0,0,0.0316667,0,0)"/>
<path style="fill:none;stroke-width:1;stroke-linecap:butt;stroke-linejoin:miter;stroke:rgb(0%,0%,0%);stroke-opacity:1;stroke-miterlimit:4;" d="M 290.625 377.590461 C 291.125 377.590461 291.75 377.467105 294.125 377.590461 C 297.125 377.960526 299.875 378.577303 301.75 378.824013 C 304.125 379.194079 306.5 378.824013 308.875 378.824013 C 311.75 378.824013 313.5 378.824013 315.25 378.824013 C 316.5 378.824013 317.625 378.824013 319.375 378.824013 C 321.125 378.824013 324.125 379.440789 327 379.440789 C 330 379.440789 333.5 379.440789 336.5 379.440789 C 338.875 379.440789 341.125 380.057566 344.125 380.057566 C 347 380.057566 350 380.550987 353 380.550987 C 354.75 380.550987 355.875 380.550987 357.625 380.550987 C 358.875 380.550987 361.125 380.550987 364.125 380.550987 C 366.5 380.550987 368.25 380.550987 370 380.550987 C 371.75 380.550987 373.5 380.550987 376.5 380.550987 C 379.375 380.550987 381.75 380.550987 384.75 380.550987 C 387.625 380.550987 390.625 380.550987 393.5 380.550987 C 397 380.550987 401.125 381.414474 404.75 381.784539 C 408.25 382.03125 411.125 382.03125 413.5 382.401316 C 415.25 382.524671 416.5 382.401316 418.875 382.401316 C 421.125 382.401316 424.125 382.03125 427 382.401316 C 429.5 382.648026 431.75 382.894737 433 382.894737 C 433.5 382.894737 435.25 382.894737 437 382.894737 C 440 382.894737 442.375 383.511513 444.75 383.511513 C 447 383.511513 448.875 384.128289 450 384.128289 C 450.625 384.128289 452.375 384.128289 453 384.128289 C 454.75 384.128289 455.875 384.128289 457 384.128289 C 457.625 384.128289 458.125 384.375 459.375 384.745066 C 460.5 384.991776 461.125 384.745066 461.75 384.745066 C 462.375 384.745066 463 384.745066 463.5 384.745066 C 464.125 384.745066 464.625 384.991776 465.875 385.238487 C 467 385.608553 467 385.855263 467.625 385.855263 C 468.25 385.855263 468.875 385.855263 469.375 385.855263 L 470 385.855263 " transform="matrix(0.03125,0,0,0.0316667,0,0)"/>
<path style="fill-rule:nonzero;fill:rgb(51.764706%,32.54902%,20.784314%);fill-opacity:1;stroke-width:1;stroke-linecap:butt;stroke-linejoin:miter;stroke:rgb(0%,0%,0%);stroke-opacity:1;stroke-miterlimit:4;" d="M 208.875 236.472039 C 208.875 235.855263 208.375 234.375 210.625 232.401316 C 214.625 228.577303 218.75 226.356908 223.5 222.409539 C 228.75 218.092105 235 213.898026 241.75 208.223684 C 248.5 202.672697 255 197.985197 260.625 193.544408 C 266.125 189.103618 271.375 183.675987 276.5 177.631579 C 281.875 171.340461 286.625 164.802632 291.125 158.264803 C 296 151.233553 300.875 145.065789 304.75 139.391447 C 308.5 133.840461 312.5 129.523026 316.5 124.095395 C 320.25 118.914474 324.125 114.720395 328.25 110.032895 C 331.75 105.838816 335.875 101.151316 340.625 96.463816 C 344.125 92.886513 347.75 88.445724 351.75 84.128289 C 355.5 80.180921 359.375 76.480263 361.75 73.519737 C 364.625 69.942434 367 67.598684 368.875 65.254934 C 370.625 62.911184 371.625 61.677632 373.5 59.457237 C 375.125 57.483553 376.875 55.139803 378.875 52.919408 C 379.875 51.685855 381.25 51.069079 383 52.302632 C 384.625 53.659539 392.375 60.074013 394.25 62.911184 C 396.125 65.871711 402.25 71.669408 408.875 77.097039 C 415.5 82.524671 422.125 90.789474 431.75 98.190789 C 440.375 104.975329 447.5 110.15625 453 114.103618 C 458.125 117.804276 464.125 121.628289 470 125.328947 C 476.5 129.276316 482.625 132.976974 487.625 136.430921 C 492.125 139.514803 495.125 143.092105 498.875 146.422697 C 502.25 149.629934 505.25 152.960526 507.625 155.304276 C 509.375 157.03125 511.25 159.251645 513.5 161.71875 C 516 164.555921 517 166.529605 518.875 168.873355 C 520.625 171.217105 522.375 173.560855 524.125 175.904605 C 525.875 178.248355 527.375 180.345395 528.875 182.935855 C 530.375 185.649671 531.875 188.610197 534.125 191.200658 C 536.125 193.421053 537.625 195.271382 539.375 196.998355 C 540.625 198.231908 541.875 199.835526 543.5 201.809211 C 545.5 204.029605 547.875 206.25 548.875 207.606908 C 549.625 208.717105 550.125 209.333882 550.625 209.950658 C 551.375 211.060855 552.625 212.171053 554.125 214.761513 C 554.75 215.871711 555.75 217.722039 556.5 219.449013 C 557 220.682566 557.75 221.669408 558.25 222.409539 C 559 223.396382 558.875 224.136513 559.375 224.753289 L 560 225.863487 " transform="matrix(0.03125,0,0,0.0316667,0,0)"/>
</g>
</svg>
